<?xml version="1.0" standalone="no"?>
<!DOCTYPE svg PUBLIC "-//W3C//DTD SVG 20010904//EN"
 "http://www.w3.org/TR/2001/REC-SVG-20010904/DTD/svg10.dtd">
<svg version="1.0" xmlns="http://www.w3.org/2000/svg"
 width="703.000000pt" height="606.000000pt" viewBox="0 0 703.000000 606.000000"
 preserveAspectRatio="xMidYMid meet">
<metadata>
Created by potrace 1.15, written by Peter Selinger 2001-2017
</metadata>
<g transform="translate(0.000000,606.000000) scale(0.100000,-0.100000)"
fill="#000000" stroke="none">
<path d="M1535 3053 c-39 -10 -72 -43 -103 -101 -26 -49 -30 -62 -18 -71 10
-9 16 -7 26 5 24 28 68 44 120 44 52 0 96 -16 120 -44 9 -12 16 -13 26 -5 11
9 9 20 -11 59 -26 52 -79 110 -100 110 -7 0 -19 2 -27 4 -7 2 -22 1 -33 -1z"/>
<path d="M1990 3053 c-50 -19 -105 -86 -125 -150 -9 -31 14 -30 61 2 61 41
171 31 214 -19 9 -12 16 -13 26 -5 11 9 9 19 -10 57 -43 85 -115 134 -166 115z"/>
<path d="M6091 2859 c-1 -32 -62 -125 -79 -121 -7 1 -11 -4 -9 -10 1 -7 -6
-12 -15 -12 -10 1 -15 -3 -11 -9 4 -6 0 -8 -11 -4 -10 4 -15 3 -11 -3 9 -14
-41 -25 -115 -25 -50 0 -77 6 -118 26 -51 26 -53 26 -63 7 -6 -11 -13 -17 -16
-14 -9 8 -44 -25 -37 -35 7 -12 -43 -35 -92 -43 -23 -4 -61 -2 -88 5 -44 11
-50 10 -97 -16 -27 -15 -57 -24 -65 -21 -8 3 -12 2 -9 -4 8 -13 -107 -47 -207
-60 -84 -12 -191 -7 -262 11 -37 10 -40 9 -75 -25 -36 -35 -59 -48 -45 -24 4
7 3 8 -5 4 -6 -4 -9 -11 -6 -16 14 -22 -143 -68 -191 -56 -37 10 -31 -20 14
-64 72 -72 184 -76 259 -7 l22 20 65 -65 c80 -80 91 -112 75 -224 -6 -43 -18
-101 -27 -129 l-17 -50 -70 -7 c-298 -31 -571 -123 -738 -249 -70 -53 -138
-137 -157 -195 l-12 -34 -113 0 c-88 0 -115 -3 -125 -15 -10 -12 -10 -18 0
-30 10 -12 37 -15 119 -15 l107 0 12 -60 c51 -245 429 -443 937 -490 61 -5
114 -10 119 -10 4 0 7 -35 6 -77 -3 -105 -3 -105 23 -101 20 3 23 10 31 91 l8
87 57 0 c31 0 106 5 166 10 508 47 886 245 937 490 l12 60 132 0 c105 0 134 3
144 15 10 12 10 18 0 30 -10 12 -40 15 -150 15 l-138 0 -12 34 c-67 205 -438
394 -866 441 l-61 7 -27 76 c-14 42 -26 88 -26 102 0 20 30 55 123 145 67 66
146 151 175 190 41 53 63 73 95 85 28 10 50 28 66 52 13 20 36 42 52 48 29 12
30 12 114 -34 65 -35 176 -6 215 56 16 24 20 44 17 75 -4 33 0 46 15 60 29 26
60 91 55 116 -4 19 -4 18 -6 -4z m-651 -355 c0 -3 -18 -31 -39 -62 -57 -83
-111 -132 -154 -139 -37 -6 -37 -5 -36 28 2 68 11 82 69 105 30 12 75 33 100
48 45 26 60 31 60 20z m-297 -321 c-27 -5 -55 -59 -56 -106 0 -35 19 -187 25
-192 1 -2 4 40 5 92 1 53 6 100 11 105 4 4 8 -34 8 -89 -1 -96 0 -101 54 -235
30 -75 58 -134 62 -132 4 3 5 -2 2 -10 -8 -20 34 -98 48 -90 7 5 8 3 4 -5 -5
-7 9 -36 33 -71 47 -66 77 -130 61 -130 -5 0 -16 15 -23 33 -11 26 -20 32 -46
33 -20 1 -40 11 -56 28 -13 14 -27 26 -31 26 -4 0 2 -10 14 -23 12 -13 22 -34
22 -47 0 -13 10 -34 22 -47 12 -13 18 -26 15 -30 -11 -10 -29 12 -57 70 -20
42 -30 52 -50 52 -21 0 -25 -4 -22 -27 3 -30 -15 -48 -24 -24 -12 32 5 65 39
75 25 7 27 9 9 10 -13 1 -33 -9 -45 -22 -12 -13 -37 -30 -55 -38 -35 -15 -37
-25 -16 -96 3 -13 2 -23 -4 -23 -5 0 -16 24 -25 53 -12 41 -16 46 -16 23 -1
-32 -26 -66 -49 -66 -8 0 -36 13 -62 29 -25 16 -61 32 -78 36 -54 11 -196 13
-209 3 -33 -26 3 45 67 132 54 76 70 113 104 248 14 54 41 139 59 188 19 49
38 98 42 109 4 12 9 15 12 8 2 -6 -10 -47 -27 -90 -40 -96 -45 -116 -71 -228
-25 -113 -79 -235 -131 -298 -22 -27 -38 -50 -36 -53 12 -12 80 97 164 264 52
103 99 193 105 200 6 7 8 20 5 28 -3 8 -2 13 3 10 17 -11 32 107 21 163 -12
66 -13 91 -1 91 5 0 14 -28 19 -62 l9 -63 2 88 c1 63 -2 87 -11 89 -20 2 92
15 137 15 22 0 30 -2 18 -4z"/>
<path d="M1635 2763 c-158 -9 -271 -25 -287 -40 -22 -20 -23 -72 -3 -139 16
-56 52 -96 108 -119 108 -45 566 -45 674 0 21 9 50 28 66 43 48 45 75 183 43
215 -31 30 -381 54 -601 40z m448 -49 c32 -4 61 -13 64 -19 2 -7 -4 -30 -14
-51 l-18 -39 -321 -3 c-250 -2 -324 1 -331 10 -17 21 -34 81 -26 89 24 24 472
33 646 13z m25 -186 c5 -46 -38 -53 -318 -53 -270 0 -320 8 -320 49 0 13 3 26
7 29 4 4 146 6 317 5 l311 -3 3 -27z"/>
<path d="M850 1983 c-22 -11 -42 -33 -54 -57 -17 -36 -18 -43 -5 -79 8 -22 27
-50 42 -61 28 -21 33 -21 965 -24 1055 -2 987 -7 1026 72 17 36 18 43 5 79 -8
22 -27 50 -42 61 -28 21 -33 21 -965 24 -877 2 -939 1 -972 -15z"/>
<path d="M850 1553 c-22 -11 -42 -33 -54 -57 -17 -36 -18 -43 -5 -79 8 -22 27
-50 42 -61 28 -21 33 -21 965 -24 1055 -2 987 -7 1026 72 17 36 18 43 5 79 -8
22 -27 50 -42 61 -28 21 -33 21 -965 24 -877 2 -939 1 -972 -15z"/>
<path d="M850 1123 c-22 -11 -42 -33 -54 -57 -17 -36 -18 -43 -5 -79 8 -22 27
-50 42 -61 28 -21 33 -21 965 -24 1055 -2 987 -7 1026 72 17 36 18 43 5 79 -8
22 -27 50 -42 61 -28 21 -33 21 -965 24 -877 2 -939 1 -972 -15z"/>
</g>
</svg>
